<svg height="225" viewBox="0 0 256 224.536" width="256" xmlns="http://www.w3.org/2000/svg"><path d="m0 0h256v224.536h-256z" fill="#fff"/><path d="m44.422 159.956c-18.838-19.962-29.86-47.54-29.832-80.443-.026-29.1 9.117-54.1 24.835-73.144l-.025.01h-33.038v153.58zm173.993.014c8.115-8.692 15.387-18.928 21.976-30.634l-36.567-18.283c-12.842 20.878-31.623 40.095-57.593 40.224-37.797-.128-52.647-32.448-52.565-74.048h141.24c.2-4.697.2-6.88 0-9.14.922-24.75-5.637-45.552-17.57-61.753l-.062.046h31.8v153.58h-30.73l.07.01zm-122.463-118.396c1.564-18.834 16.413-31.5 33.824-31.54 17.53.038 30.196 12.704 30.625 31.54h-64.451z" fill="#a90533"/><path d="m26.475 217.553v-6.4h-12.34v-10.055h11.885v-6.4h-11.887v-8.685h12.34v-6.4h-19.653v37.938zm33.367-16c4.9-.728 7.6-5.583 7.77-10.513-.18-8.066-5.4-11.403-12.798-11.427h-10.056v37.938h7.313v-15.084l9.142 15.084h9.142zm-7.77-15.997h.914c4 .15 6.985 1.06 6.856 5.942.128 4.473-2.765 5.687-6.856 5.485h-.914zm51.65 25.597h-10.522v-31.538h-7.313v37.938h17.826zm37.48-1.37 3.2 7.77h7.77l-14.17-38.852h-5.942l-15.084 38.852h7.77l3.2-7.77zm-1.828-5.94h-9.142l4.114-14.17zm59.88 14.623v-38.852h-7.77v25.597l-20.114-26.511h-5.484v38.853h7.77v-25.597l20.112 26.5zm31.997-21.026v5.942h8.228c-.17 4.775-4.08 8.82-8.685 8.685-7.273.136-10.877-6.892-10.97-13.256.093-6.28 3.647-13.6 10.97-13.713 3.843.1 7.092 2.73 8.685 5.942l6.4-3.2c-2.814-5.928-8.5-9.215-15.084-9.142-11.334-.073-18.592 9.282-18.74 20.112.15 10.56 7.204 19.966 18.283 20.112 11.966-.146 17.498-9.704 17.37-20.57v-.914h-16.458z"/></svg>